<svg style="position: absolute; width: 0; height: 0;" width="0" height="0" version="1.1" xmlns="http://www.w3.org/2000/svg" xmlns:xlink="http://www.w3.org/1999/xlink"><defs><symbol id="businesspartner-coworker-colleague-human-partners" viewBox="0 -212 1024 1024"><path d="M889 265 q86 -65 93 -190 q-2 -96 -58 -160 q-54 -63 -134 -65 q-129 9 -179 146 q-61 -138 -195 -146 q-91 2 -153 72 q-62 69 -65 176 q8 144 105 219 q-112 38 -182 131 q-69 93 -71 217 q7 77 84 85 l563 0 q76 -8 84 -85 q-1 -8 -1 -16 l260 0 q68 -6 75 -74 q-2 -111 -64 -194 q-62 -82 -162 -116 ZM666 56 q1 -4 1 -10 q1 -5 3 -10 q0 -3 0 -6 q13 -48 44 -79 q33 -34 76 -35 q43 1 76 34 q31 32 43 80 q1 2 2 6 l2 10 q1 6 1 10 q1 5 1 11 l0 7 l0 6 q0 5 -1 11 q0 5 -1 9 q-1 6 -2 11 q-1 3 -2 7 q-12 47 -43 80 q-33 31 -76 33 q-43 -2 -76 -34 q-31 -32 -44 -79 q0 -4 0 -7 q-2 -5 -3 -10 q0 -5 -1 -10 q-1 -6 -1 -11 l0 -6 l0 -7 q0 -6 1 -11 ZM621 177 q27 55 70 88 q-68 22 -120 70 q-21 -10 -44 -18 q66 -50 94 -140 ZM267 123 q-2 -12 -2 -25 q4 -88 60 -144 q40 -36 91 -38 q63 3 107 58 q32 46 41 104 q1 12 1 25 q-4 88 -60 145 q-39 36 -89 37 q-64 -2 -108 -58 q-33 -45 -41 -104 ZM134 683 q-16 -2 -17 -18 q1 -99 57 -176 q55 -77 150 -109 l8 -2 q82 -24 167 1 l8 1 q94 32 150 109 q56 77 57 176 q-1 16 -17 18 l-563 0 ZM771 583 q-33 -133 -140 -212 q36 -28 80 -42 l21 -7 q39 -15 116 -1 l21 8 q171 64 179 246 q-1 8 -8 8 l-269 0 Z"></path></symbol><symbol id="crown-king-queen-royalty-ruler-rules" viewBox="0 -212 1024 1024"><path d="M111 -5 q-56 5 -61 61 q5 55 61 60 q55 -5 60 -60 q-5 -56 -60 -61 ZM501 -150 q-60 5 -65 65 q5 59 65 65 q59 -6 64 -65 q-5 -60 -64 -65 ZM890 -3 q-54 4 -60 60 q6 54 60 59 q55 -5 60 -59 q-5 -56 -60 -60 ZM633 370 l-90 -358 l-80 0 l-99 339 l-170 -240 l-64 40 l120 413 l502 0 l120 -413 l-59 -40 l-180 259 ZM255 610 q-51 5 -56 54 l0 32 q5 50 56 54 l491 0 q52 -4 57 -54 l0 -32 q-5 -49 -57 -54 l-491 0 Z"></path></symbol><symbol id="bingxiang" viewBox="0 -212 1024 1024"><path d="M50 327 l0 0 l439 0 l0 -425 q0 -31 -17 -42 q-17 -10 -47 -10 l-320 0 q-34 0 -44 19 q-11 19 -11 49 l0 409 l0 0 ZM130 -95 l0 0 q8 0 15 6 q6 6 6 19 l0 325 q0 11 -6 16 q-7 6 -15 6 q-21 0 -21 -22 l0 -325 q0 -12 5 -19 q5 -6 16 -6 l0 0 ZM489 366 l0 0 l-439 0 l0 308 q0 17 7 30 q7 14 24 20 q8 4 13 5 q5 1 7 2 q3 1 4 0 q-2 11 1 20 q2 9 8 14 q5 6 16 6 q11 0 16 -6 q4 -6 6 -15 q2 -9 2 -19 l223 0 q-1 11 2 19 q2 7 7 13 q5 7 16 6 q10 0 15 -6 q4 -6 6 -13 q2 -8 2 -19 q9 0 19 -3 q8 -2 16 -6 q8 -3 14 -10 q12 -14 14 -25 q1 -10 1 -21 l0 -300 l0 0 ZM131 409 l0 0 q10 0 15 6 q5 7 5 18 l0 230 q0 12 -4 19 q-4 7 -16 7 q-12 0 -17 -10 q-5 -9 -4 -24 l0 -22 l0 -41 l0 -50 l0 -50 q0 -23 0 -39 q-1 -16 -1 -19 q0 -12 7 -19 q6 -6 15 -6 l0 0 Z"></path></symbol><symbol id="xiyiji" viewBox="0 -212 1024 1024"><path d="M589 338 l0 0 q0 -40 -14 -75 q-15 -35 -41 -61 q-27 -26 -61 -41 q-35 -15 -75 -15 q-40 0 -75 15 q-35 15 -61 41 q-26 26 -41 61 q-15 35 -15 74 q0 40 15 75 q15 35 41 61 q26 26 61 41 q35 15 75 15 q40 0 75 -15 q34 -15 61 -41 q26 -26 41 -61 q14 -35 14 -74 l0 0 ZM654 715 l0 0 l-511 0 q0 12 9 21 q8 9 22 15 q14 7 32 11 q17 5 34 5 l308 0 q20 0 40 -5 q19 -4 33 -11 q14 -6 24 -15 q9 -9 9 -21 l0 0 ZM663 -150 l-529 1 q-39 0 -61 25 q-23 25 -23 61 l0 658 q0 35 25 61 q24 26 64 26 l518 0 q39 0 65 -26 q25 -26 25 -61 l0 -658 q0 -36 -20 -62 q-20 -25 -64 -25 l0 0 ZM118 -30 l0 0 l0 -18 q0 -12 9 -22 q9 -9 26 -9 l75 0 q16 0 26 9 q9 9 9 20 l0 16 q0 11 -8 23 q-9 12 -26 12 l-78 0 q-17 0 -25 -10 q-8 -10 -8 -21 l0 0 ZM398 594 l0 0 q-52 0 -99 -20 q-47 -20 -81 -55 q-35 -35 -55 -82 q-20 -46 -20 -99 q0 -53 20 -100 q20 -46 55 -81 q34 -34 81 -54 q47 -20 99 -20 q53 0 100 20 q46 20 81 54 q35 35 55 81 q20 47 20 100 q0 53 -20 99 q-20 47 -55 82 q-35 35 -81 55 q-47 20 -100 20 l0 0 Z"></path></symbol><symbol id="air-condition" viewBox="0 -212 1024 1024"><path d="M1635 139 l0 96 q0 1 -1 1 l-2 26 q0 8 0 17 q-1 13 -2 28 l-6 37 q-1 20 -6 40 q-5 27 -12 55 q-5 17 -13 35 q-7 17 -17 32 q-6 7 -13 11 q-7 5 -17 4 l-31 0 q-4 1 -5 -1 q-1 -1 -1 -5 l0 -97 q0 -6 -2 -8 q0 -1 -7 -1 l-1313 0 q-6 0 -8 1 q-1 1 -1 7 l0 97 q0 5 -1 6 q-1 2 -7 1 q-18 1 -34 0 q-8 0 -15 -4 q-8 -6 -13 -14 q-15 -21 -22 -45 q-17 -50 -24 -103 l-7 -69 q-1 -8 -1 -16 q-2 -9 -3 -18 q0 -8 0 -17 q0 -2 -1 -4 l0 -90 q1 -1 1 -3 q0 -11 1 -24 q2 -12 3 -25 q1 -13 2 -25 q2 -25 6 -50 q3 -25 9 -50 q4 -21 11 -42 q7 -22 17 -41 q11 -20 30 -31 l1425 0 q5 3 9 6 q5 3 8 6 q10 13 17 27 q14 29 21 62 q8 39 14 79 q4 27 7 55 q1 8 1 16 q1 14 2 27 q1 6 1 11 l0 0 ZM843 330 q329 0 657 -1 q10 0 20 -3 q11 -3 21 -10 q10 -6 18 -15 q14 -17 16 -38 q1 -23 -12 -41 q-11 -17 -32 -26 q-21 -9 -44 -8 l-1246 0 q-16 0 -32 -1 q-15 0 -31 2 q-25 4 -44 20 q-13 12 -20 29 q-6 16 -1 32 q5 28 28 44 q20 15 44 16 l658 0 l0 0 ZM1473 521 l-1258 0 q-6 1 -7 -1 q-1 -1 -1 -7 l0 -69 q0 -4 0 -5 q2 -1 7 -1 l3 0 l1252 0 q8 -1 10 1 q2 1 2 9 l0 66 q0 5 -1 6 q-2 2 -7 1 l0 0 ZM328 591 q-7 16 -5 33 q2 18 6 35 q4 19 8 38 q2 17 -5 32 q-11 31 -41 44 q-1 0 -4 1 q3 -9 6 -16 q8 -20 6 -42 q-4 -19 -8 -39 q-4 -18 0 -36 q3 -19 14 -34 q9 -12 23 -16 l0 0 ZM476 591 q-4 9 -5 18 q-1 9 0 18 q2 17 6 32 q2 12 5 24 q3 11 3 23 q-1 26 -19 46 q-10 12 -25 20 q-2 0 -3 1 l-3 0 q3 -8 6 -15 q6 -17 6 -34 q0 -17 -5 -34 q-8 -24 -3 -50 q3 -13 9 -25 q6 -11 18 -20 q4 -3 9 -5 q1 0 1 1 l0 0 ZM624 590 q-7 15 -5 30 q2 18 5 37 q2 9 4 18 q2 9 4 19 q4 29 -14 53 q-11 14 -27 24 q-3 1 -5 2 l-3 0 q3 -8 6 -15 q3 -13 5 -26 q3 -19 -4 -39 q-8 -26 -3 -55 q4 -20 19 -36 q3 -4 8 -7 q4 -4 10 -5 l0 0 ZM1363 591 q-4 6 -5 12 q0 5 0 11 q0 22 5 44 q5 17 8 36 q3 19 -5 37 q-10 25 -34 38 q-4 2 -10 5 q3 -9 5 -16 q12 -28 3 -59 q-7 -23 -6 -47 q2 -16 8 -31 q6 -14 19 -25 q6 -4 11 -6 q1 0 1 1 l0 0 ZM1216 590 q-5 9 -6 19 q-1 10 -1 19 q3 16 7 33 q5 21 8 42 q1 10 -2 18 q-3 9 -7 18 q-13 22 -36 33 q-1 1 -2 1 l-2 0 q2 -8 4 -16 q12 -27 4 -57 q-3 -11 -5 -22 q-2 -11 -2 -23 q1 -15 6 -28 q4 -14 14 -25 q4 -4 9 -7 q4 -4 11 -5 l0 0 ZM1069 590 q-6 9 -7 18 q-1 9 0 19 q2 16 6 32 l5 24 q3 11 3 23 q-1 26 -19 47 q-11 11 -25 18 l-5 3 q2 -9 4 -15 q12 -29 4 -60 l-6 -21 q-1 -11 -1 -21 q1 -13 4 -27 q4 -12 13 -23 q3 -5 9 -10 q6 -5 15 -7 l0 0 ZM731 774 q5 -13 9 -26 q6 -22 0 -45 q-5 -21 -8 -43 q0 -5 1 -11 q1 -6 3 -13 q4 -24 25 -40 q4 -4 10 -7 q-2 9 -3 15 q-4 21 1 40 q5 22 10 44 q5 22 -4 43 q-13 30 -42 42 l-2 1 l0 0 ZM919 589 q-3 12 -4 22 q-1 15 1 30 q5 23 11 47 q7 34 -16 63 q-11 13 -27 21 q-2 1 -3 1 q0 -8 3 -16 q9 -20 6 -43 l-7 -31 q-4 -22 -1 -43 q5 -24 22 -41 q7 -5 15 -10 l0 0 Z"></path></symbol><symbol id="television20" viewBox="0 -212 1024 1024"><path d="M823 593.83 l0 0 l-115 0 q-26 3 -28 29 q2 26 28 29 l115 0 q26 -3 28 -29 q-2 -26 -28 -29 l0 0 ZM565 193.83 l0 0 l-343 0 q-53 4 -58 57 l0 343 q5 52 58 58 l343 0 q53 -6 57 -58 l0 -343 q-4 -53 -57 -57 l0 0 ZM565 565.83 l0 0 q-2 26 -28 28 l-287 0 q-26 -2 -28 -28 l0 -287 q2 -26 28 -28 l287 0 q26 2 28 28 l0 287 l0 0 ZM823 507.83 l0 0 l-115 0 q-26 3 -28 29 q2 26 28 29 l115 0 q26 -3 28 -29 q-2 -26 -28 -29 l0 0 ZM851 78.83 l0 0 l-264 0 l251 -173 q21 -17 8 -42 q-16 -22 -39 -9 q-17 11 -141 97 q-124 85 -158 107 l-299 -204 q-23 -13 -39 9 q-13 25 8 42 l251 173 l-265 0 q-104 10 -114 115 l0 458 q10 104 114 114 l687 0 q105 -10 115 -114 l0 -458 q-10 -105 -115 -115 l0 0 ZM909 651.83 l0 0 q-5 51 -58 57 l-687 0 q-52 -6 -57 -57 l0 -458 q5 -53 57 -58 l687 0 q53 5 58 58 l0 458 l0 0 ZM766 193.83 l0 0 q-79 7 -86 85 q7 79 86 86 q78 -7 85 -86 q-7 -78 -85 -85 l0 0 ZM794 307.83 l0 0 l-57 0 l0 -57 l57 0 l0 57 l0 0 Z"></path></symbol><symbol id="distilled-faucet-filter-osmosis-tap-water" viewBox="0 -212 1024 1024"><path d="M116 136 l-1 171 l12 0 l103 0 q15 0 42 3 q27 2 41 8 q48 25 90 25 l8 0 l8 0 q41 0 89 -25 q21 -8 57 -10 q102 2 120 21 q19 18 14 103 q3 6 84 13 q81 -7 84 -13 q8 -178 -57 -239 q-66 -61 -308 -57 l-386 0 ZM891 457 q-3 32 -30 35 l-157 0 q-27 -3 -30 -35 q3 -33 30 -36 l157 0 q27 3 30 36 ZM489 140 q-6 67 -73 73 q-67 -6 -74 -73 l0 -108 q7 -67 74 -73 q67 6 73 73 l0 108 ZM440 -20 q4 4 -22 8 q-30 -4 -29 -8 l0 -90 l51 0 l0 90 ZM393 -117 q-14 -1 -16 -17 q2 -15 16 -16 l45 0 q16 1 17 16 q-1 16 -17 17 l-45 0 ZM543 -112 q-1 21 -19 23 l-217 0 q-18 -2 -20 -23 q2 -21 20 -22 l217 0 q18 1 19 22 ZM170 364 q-5 56 -60 61 q-55 -5 -60 -61 l0 -287 q5 -56 60 -61 q55 5 60 61 l0 287 ZM837 281 q-25 -88 -130 -101 q2 1 27 16 l48 30 q20 14 37 34 q17 19 18 21 ZM540 164 q-16 -39 -35 -59 q-19 -19 -65 -19 q3 0 28 19 q24 19 34 63 q6 21 21 10 q15 -11 17 -14 ZM788 553 q-4 6 -28.5 56 q-24.5 50 -27.5 85 q4 51 56 56 q51 -5 56 -56 q-3 -33 -28 -84 q-25 -51 -28 -57 ZM783 737 q50 5 49 -50 q-2 5 -22 30 q-22 19 -27 20 ZM416 48 q33 0 61.5 12.5 q28.5 12.5 50.5 34 q22 21.5 34 50.5 q12 29 12 61.5 q0 32.5 -12 61.5 q-12 29 -34 50.5 q-22 21.5 -50.5 33.5 q-28.5 12 -61.5 12 q-33 0 -62 -12 q-29 -12 -50.5 -33.5 q-21.5 -21.5 -34 -50.5 q-12.5 -29 -12.5 -61.5 q0 -32.5 12.5 -61.5 q12.5 -29 34 -50.5 q21.5 -21.5 50.5 -34 q29 -12.5 62 -12.5 Z"></path></symbol><symbol id="casserole-cauldron-cookingutensil-kitchenutensil-pot-saucepan-stove" viewBox="0 -212 1024 1024"><path d="M1537 203.66 q-145 -103 -271 -128 q-126 -25 -135 -21 q-10 -142 -81 -176 q-71 -33 -81 -28 q-147 13 -172.5 103 q-25.5 90 -17.5 103 q-177 14 -292 76 q-116 62 -121 71 l1171 0 ZM1837 217.66 q-25 -52 -50 -44 q-112 8 -180 60 q-68 54 -70 61 l0 -61 l-1171 0 l0 61 q-1 -7 -69 -60 q-68 -53 -179 -61 q-26 -8 -51 44 q-17 15 57 52 q9 -1 96 28 q89 28 146 98 l0 192 l3 0 q32 146 183 158 l800 0 q151 -12 183 -158 l2 0 l0 -192 q59 -70 146 -98 q88 -29 97 -28 q75 -37 57 -52 Z"></path></symbol><symbol id="christmas-christmastree-decoration-ornament-snowflake-xmas" viewBox="0 -212 1024 1024"><path d="M706 388 l-81 -46 q6 -21 6 -42 q0 -23 -6 -43 l81 -46 l168 45 l21 -77 l-92 -25 l79 -45 l-40 -69 l-79 46 l25 -92 l-77 -21 l-45 169 l-81 46 q-30 -30 -73 -42 l0 -93 l124 -124 l-57 -55 l-67 67 l0 -91 l-79 0 l0 91 l-67 -68 l-57 56 l124 124 l0 93 q-43 12 -73 42 l-81 -46 l-45 -169 l-77 21 l25 92 l-79 -46 l-40 69 l79 45 l-92 25 l21 77 l168 -45 l81 46 q-5 20 -6 43 q1 21 6 42 l-81 46 l-168 -45 l-21 77 l92 25 l-79 45 l40 69 l79 -46 l-25 92 l77 21 l45 -169 l81 -46 q30 30 73 41 l0 94 l-124 124 l57 55 l67 -67 l0 92 l79 0 l0 -92 l67 67 l57 -55 l-124 -124 l0 -94 q43 -12 73 -41 l81 46 l45 169 l77 -21 l-25 -92 l79 46 l40 -69 l-79 -45 l92 -25 l-21 -77 l-168 45 ZM394 300 q6 -73 78 -79 q73 6 79 79 q-6 72 -79 78 q-72 -6 -78 -78 Z"></path></symbol><symbol id="appliances-fan" viewBox="0 -212 1024 1024"><path d="M500 750 q192 -4 318 -132 q128 -126 132 -318 q-4 -192 -132 -318 q-126 -128 -318 -132 l0 900 ZM50 300 q4 192 132 318 q126 128 318 132 l0 -900 q-192 4 -318 132 q-128 126 -132 318 ZM500 300 q-75 -2 -124.5 -51.5 q-49.5 -49.5 -51.5 -124.5 q2 -74 51.5 -124 q49.5 -50 124.5 -52 l0 352 ZM676 476 q-2 74 -52 124 q-49 50 -124 52 l0 -352 q75 2 124.5 51.5 q49.5 49.5 51.5 124.5 ZM500 300 q2 -75 51.5 -124.5 q49.5 -49.5 124.5 -51.5 q74 2 124 52 q50 49 52 124 l-352 0 ZM324 476 q-74 -2 -124 -51.5 q-50 -49.5 -52 -124.5 l352 0 q-2 75 -51.5 124.5 q-49.5 49.5 -124.5 51.5 ZM120 300 q5 161 112 268 q107 107 268 112 l0 -760 q-161 5 -268 112 q-107 107 -112 268 ZM880 300 q-5 -161 -112 -268 q-107 -107 -268 -112 l0 760 q161 -5 268 -112 q107 -107 112 -268 ZM120 300 q5 -161 112 -268 q107 -107 268 -112 l0 -28 q-173 5 -288 120 q-115 115 -120 288 q5 173 120 288 q115 115 288 120 l0 -28 q-161 -5 -268 -112 q-107 -107 -112 -268 ZM500 -80 q161 5 268 112 q107 107 112 268 q-5 161 -112 268 q-107 107 -268 112 l0 28 q173 -5 288 -120 q115 -115 120 -288 q-5 -173 -120 -288 q-115 -115 -288 -120 l0 28 Z"></path></symbol><symbol id="24xiaoshitianqi" viewBox="0 -212 1024 1024"><path d="M988 476 q11 11 11 27 q0 16 -11 27 q-11 11 -26 11 q-16 0 -27 -11 q-11 -11 -11 -27 q0 -16 11 -27 q11 -11 27 -11 q15 0 26 11 l0 0 ZM935 282 q11 -11 27 -11 q15 0 26 11 q11 11 11 27 q0 16 -11 27 q-11 11 -26 11 q-16 0 -27 -11 q-11 -11 -11 -27 q0 -16 11 -27 l0 0 ZM647 823 q11 12 11 28 q0 16 -11 27 q-11 11 -27 11 q-16 0 -27 -11 q-12 -11 -12 -27 q0 -16 12 -28 q11 -11 27 -11 q16 0 27 11 l0 0 ZM913 629 q11 12 11 28 q0 16 -11 27 q-11 12 -27 12 q-16 0 -27 -12 q-11 -11 -11 -27 q0 -16 11 -28 q11 -11 27 -11 q16 0 27 11 l0 0 ZM366 423 q52 -43 71 -68 q18 -25 18 -47 q0 -24 -16 -40 q-17 -16 -44 -16 q-28 0 -45 17 q-17 17 -18 47 l-40 -4 q4 -45 31 -69 q27 -24 73 -24 q46 0 73 26 q26 26 26 64 q0 19 -7 37 q-8 19 -27 40 q-18 20 -60 56 q-35 30 -45 40 q-10 11 -17 22 l157 0 l0 38 l-211 0 q-1 -14 4 -28 q8 -21 26 -42 q18 -21 51 -49 l0 0 ZM798 745 q11 12 11 28 q0 16 -11 27 q-11 12 -26 12 q-16 0 -27 -12 q-11 -11 -11 -27 q0 -16 11 -28 q11 -11 27 -11 q15 0 26 11 l0 0 ZM961 194 l-72 0 q-53 -110 -156 -177 q-103 -66 -227 -66 q-116 0 -215 58 q-99 59 -156 159 q-57 100 -57 218 q0 118 57 218 q57 100 156 158 q98 58 214 58 l0 69 q-101 0 -192 -40 q-92 -39 -158 -107 q-66 -67 -105 -160 q-39 -93 -39 -195 q0 -102 39 -196 q39 -93 105 -160 q66 -67 158 -107 q91 -40 192 -40 q152 0 276 85 q124 86 180 225 l0 0 ZM746 429 l0 36 l-43 0 l0 77 l-39 0 l0 -77 l-139 0 l0 -36 l146 -208 l32 0 l0 208 l43 0 l0 0 ZM664 429 l0 -145 l-101 145 l101 0 l0 0 Z"></path></symbol><symbol id="renminbi" viewBox="0 -212 1024 1024"><path d="M308 554 l0 0 l0 106 q3 44 28 65 q25 22 70 22 q91 0 95 -87 l0 -108 l197 1 q26 -2 42 -20 q15 -18 17 -45 q-2 -25 -17 -44 q-16 -18 -42 -20 l-197 0 l0 -63 l196 -1 q26 -2 42 -21 q16 -18 18 -44 q-2 -26 -17 -43 q-16 -16 -42 -18 l-151 0 l159 -258 q20 -26 20 -56 q-3 -21 -9 -35 q-7 -13 -17 -20 q-10 -7 -22 -11 q-13 -3 -29 -4 q-24 4 -43 17 q-20 13 -32 31 l-171 286 l-156 -284 q-12 -18 -31 -33 q-20 -15 -45 -17 q-42 6 -57 23 q-15 18 -21 47 q-1 23 9 41 q9 19 19 32 l137 241 l-147 0 q-28 2 -42 18 q-15 17 -19 43 q4 26 19 43 q14 18 42 20 l197 1 l0 65 l-197 0 q-28 2 -42 18 q-15 17 -19 42 q4 26 19 47 q14 21 42 23 l197 0 l0 0 Z"></path></symbol><symbol id="exchange" viewBox="0 -212 1024 1024"><path d="M1282 466 q0 -9 -6 -16 q-7 -6 -16 -6 l-946 0 l0 -132 q0 -9 -6 -16 q-7 -6 -16 -6 q-10 0 -16 6 l-220 220 q-6 6 -6 16 q0 9 6 15 l220 220 q8 7 16 7 q9 0 16 -7 q6 -6 6 -15 l0 -132 l946 0 q9 0 16 -7 q6 -6 6 -15 l0 -132 l0 0 ZM1276 76 l-219 -219 q-9 -7 -17 -7 q-10 0 -16 6 q-6 6 -6 16 l0 132 l-946 0 q-9 0 -15 6 q-7 7 -7 16 l0 132 q0 9 7 15 q6 7 15 7 l946 0 l0 132 q0 9 7 15 q6 7 15 7 q10 0 16 -6 l220 -220 q6 -6 6 -16 q0 -10 -6 -16 l0 0 Z"></path></symbol></defs></svg>